<?xml version="1.0" encoding="utf-8"?>
<!-- Generator: Adobe Illustrator 16.0.0, SVG Export Plug-In . SVG Version: 6.00 Build 0)  -->
<!DOCTYPE svg PUBLIC "-//W3C//DTD SVG 1.1//EN" "http://www.w3.org/Graphics/SVG/1.1/DTD/svg11.dtd">
<svg version="1.1" id="Layer_1" xmlns="http://www.w3.org/2000/svg" xmlns:xlink="http://www.w3.org/1999/xlink" x="0px" y="0px"
	 width="1280px" height="800px" viewBox="0 0 1280 800" enable-background="new 0 0 1280 800" xml:space="preserve">
<path id="Zheger_1_" fill="#353535" stroke="#FFFFFF" stroke-width="1.5" stroke-miterlimit="10" d="M654.135,561.643
	c-5.521-2.78-9.596-6.624-11.375-12.921c-1.763-6.236-7.355-10.633-8.975-17.06c0.012-4.979-2.896-8.016-6.883-10.335
	c-1.512-8.354-3.248-16.655-2.645-25.262c0.314-4.483-1.339-8.349-4.911-11.386c-2.341-1.988-4.714-4.082-5.591-7.258
	c2.158-1.992,1.017-4.35,0.643-6.566c-0.185-1.089-0.844-1.857,0.208-3.104c6.09-7.203,8.404-16.797,14.915-23.763
	c1.585,0.014,2.104-1.539,3.164-2.155c4.774-2.793,8.046-9.756,15.366-5.858c0.354,0.302,0.703,0.603,1.056,0.904
	c1.094,4.647,4.146,7.614,8.28,9.657c3.613,4.455,4.258,10.15,6.386,15.227c-0.405,1.104-1.188,2.345,0.922,2.532l-0.082-0.104
	c-0.235,1.155-0.196,2.174,1.259,2.472l-0.068-0.093c0.413,2.962,1.387,5.479,4.814,6.032l-0.077-0.079
	c3.612,2.124,7.216,0.773,10.822-0.022l-0.099-0.037c0.428,1.044,1.299,1.131,2.251,1.041c0.2,0.49,0.401,0.982,0.602,1.476
	c-0.128,1.452,0.195,2.518,1.993,2.309l-0.066-0.075c0.788,3.494,3.555,3.029,5.939,2.718c8.854-1.153,16.911,2.081,24.476,5.547
	c6.803,3.115,12.714,5.511,19.217,0.229c2.238,3.64,4.147,7.414,5.416,11.527c1.193,3.868,1.061,7.325-2.673,9.624
	c-1.387,0.854-1.267,1.35-0.788,2.67c0.702,1.926,1.514,4.092-0.577,5.837c-4.362,2.367-5.041,6.362-4.776,10.78
	c-0.546,5.698-5.369,9.612-6.331,15.142c-0.104,4.611-0.207,9.223-0.314,13.833c-5.46,1.603-10.188,5.666-16.445,4.742
	c-0.798-0.119-2.096,1.135-2.698,2.056c-3.976,6.04-11.016,4.259-16.453,6.525c-1.196,0.496-2.303-0.813-2.674-1.883
	c-1.729-4.974-5.805-5.952-10.292-6.34c-6.408-5.063-11.944-6.351-15.125-2.559C659.666,560.373,657.33,561.472,654.135,561.643z"/>
<path id="Cernic" fill="#353535" stroke="#FFFFFF" stroke-width="1.5" stroke-miterlimit="10" d="M584.539,361.396
	c-3.033-4.88-8.47-8.267-12.836-12.317c-0.68-0.441-1.361-0.883-2.042-1.324c-0.001,0.001,0.206,0.139,0.206,0.139
	c-1.767-0.269-1.719-3.093-3.905-2.765c-1.57-0.438-3.139-0.875-4.709-1.313c-2.16-1.085-5.637-0.311-5.864-4.127
	c-1.268,0.477-1.667,0.083-1.197-1.182c-1.254,0.459-1.647,0.063-1.183-1.195c-3.977-1.298-8.146-2.34-9.497-7.135
	c-3.964-1.994-4.688-5.582-4.705-9.519c-1.082,0.007-1.242-0.695-1.161-1.583c-0.375-0.491-0.75-0.983-1.125-1.475
	c-3.231-0.27-3.061-3.609-4.751-5.27c-6.602-1.716-5.492-8.218-7.696-12.631c-0.649-1.298-0.338-3.077-0.466-4.637
	c-1.172-4.195-3.755-7.915-4.176-12.359c-0.329-3.466-4.431-2.731-5.686-5.154c-0.585,0.005-1.611,0.188-1.692-0.011
	c-2.509-6.257-8.58-10.055-11.188-16.223c-1.636,1.035-2.123-0.229-2.677-1.358c-4.428-1.847-3.948-5.917-4.348-9.59
	c-0.153-0.327-0.306-0.654-0.458-0.979c-0.363,0.365-0.727,0.729-1.09,1.094c0.333,2.57-1.213,3.888-3.24,4.885
	c-1.191,2.844-3.698,4.563-5.736,6.685c-3.783,6.041-4.111,6.115-9.139,1.671c-6.335-5.601-14.76-4.714-22.148-7.011
	c-3.361-1.045-6.979-1.277-9.746-3.704c-1.923-1.686-4.223-1.488-6.17-0.949c-2.369,0.654-3.669-0.262-5.014-1.763
	c-1.214,0.094-2.426,0.188-3.64,0.282c-0.849,1.937-0.401,3.815,0.127,5.747c1.512,5.527,4.156,10.858,2.317,16.929
	c-0.719,2.368,1.133,3.64,2.726,5.497c4.978,5.802,8.963,12.452,9.738,20.431c0-0.004,0.273,0.191,0.273,0.191l0.225-0.251
	c2.782,1.621,8.708,1.621,3.739,7.245c2.891,6.544,8.531,10.453,13.936,14.593c2.122,1.052,4.748,1.592,4.807,4.735
	c3.144,3.453,6.771,5.235,11.699,4.672c7.425-0.851,7.483-0.604,6.77,6.729c-0.075,0.767-0.293,1.52-0.447,2.277
	c0.491,2.939,2.286,5.746,0.898,8.875c0.065,1.029,0.325,1.96,1.405,2.368c9.413,3.561,18.28,8.624,28.98,8.228
	c5.177-0.191,11.21,0.041,13.277,6.847c1.549,2.802,1.751,7.354,7.204,4.569c1.357-0.692,4.207-0.223,3.703,3.287
	c-0.344,2.399,0.341,4.945,0.566,7.426c-2.233,1.206-4.477,2.225-4.945,5.288c-0.405,2.644-2.434,3.662-5.064,3.389
	c-1.891,2.931,0.752,4.329,2.396,4.358c6.505,0.124,13.618,2.869,19.022-3.367c2.942-0.875,2.423-9.39,8.313-3.765
	c1.356,0.153,2.809,0.641,3.638-1.045c5.18-2.173,10.359-4.438,15.279,0.552c3.763,0.62,8.841,2.507,10.131-2.337
	C590.232,376.304,588.688,368.074,584.539,361.396z"/>
<path id="Ponesh_1_" fill="#353535" stroke="#FFFFFF" stroke-width="1.5" stroke-miterlimit="10" d="M431.099,250.297
	c-1.214,0.094-2.426,0.188-3.64,0.282c-8.064,1.225-16.016,0.399-23.921-1.299l0.106,0.109c-1.294-1.855-1.751-4.126-3.84-5.652
	c-1.581-1.155-1.954-3.149-1.602-5.675c1.275-9.131,1.784-18.355-0.491-27.474c1.834-3.995,1.529-8.144,0.886-12.317
	c0.41-1.792,0.123-3.386-0.756-5.074c-1.387-2.67-0.854-5.362,0.927-7.726c4.325-5.733,8.489-11.526,8.957-19.067
	c0.109-1.748,1.253-3.11,2.564-3.729c2.675-1.261,3.533-3.58,5.009-5.835c2.264-3.456-0.121-8.034,0.844-9.262
	c2.688-3.415,2.145-7.475,4.015-10.8c4.059,2.243,8.118,4.484,12.172,6.723c0.403,3.437,3.112,3.519,5.643,3.862l-0.054-0.051
	c1.247,4.077,5.71,3.71,8.265,5.983l0.011-0.065c0.814,3.774,2.805,6.814,5.764,9.252c1.003,2.101,2.851,3.835,4.941,3.514
	c4.883-0.75,8.272,2.183,11.602,4.493c4.09,2.84,8.337,4.004,13.097,4.132c0.352,1.545,0.702,3.09,1.056,4.636
	c-1.136,0.818-1.176,1.844-0.788,3.114c2.998,9.791,11.556,16.358,14.984,25.891c0.986,3.397,1.972,6.792,2.957,10.19
	c0.635,5.399,4.062,8.843,8.23,11.771c-1.304,5.066-3.86,8.109-9.729,8.738c-4.146,0.443-9.25,2.238-5.958,8.709
	c-4.813,3.837-9.781,7.529-11.57,13.917c-0.948,3.386-2.248,4.547-4.687,0.784c-1.492-2.301-3.587-4.172-6.6-4.546
	c-10.067-1.25-20.226-2.167-28.94-8.24c-1.357-0.948-3.383-1.143-4.446-0.005C434.433,251.365,432.784,250.314,431.099,250.297z"/>
<path id="Verbic_e_Zhegocit_1_" fill="#353535" stroke="#FFFFFF" stroke-width="1.5" stroke-miterlimit="10" d="M333.507,116.653
	c-0.252-0.246-0.739-0.507-0.724-0.734c0.197-2.84,3.903-6.174,2.272-7.659c-2.977-2.708-7.328-4.013-11.539-4.888
	c-5.322-1.103-10.786-2.251-15.406-5.076c-10.155-6.212-10.196-11.542-8.065-24.035c1.759-10.3,6.931-18.875,16.108-24.839
	c4.527-2.941,6.427-8.393,7.574-13.265c1.3-5.521,3.528-5.492,7.467-3.292c0.858,0.479,1.794,0.888,2.517,1.529
	c2.501,2.217,4.912,0.817,7.031-0.395c2.308-1.322,2.462-3.422,1.748-6.131c-2.164-8.196,0.039-10.167,8.188-8.021
	c6.951,1.828,13.891,3.781,20.942,5.109c2.984,0.563,2.981,2.317,3.708,4.356c1.179,3.309,2.526,6.3,6.579,1.991
	c3.643-3.873,8.345-3.647,12.982-1.498c0.53,0.246,1.013,0.763,1.546,0.806c14.5,1.177,14.744,12.881,16.446,22.978
	c0.907,5.378,3.317,11.144-0.327,16.574c6.473,8.638-0.539,16.111-1.992,24.099c-1.469,8.072,2.254,15.406,3.938,23.017
	c0.4,1.803,2.084,3.536-0.296,5.126c-2.84-0.979-6.699-3.347-8.248-2.928c-6.301,1.701-9.9-0.759-12.965-5.529l0.014,0.026
	c0.939-2.127-0.94-3.559-1.358-5.355c-0.785-3.378-2.935-6.962-6.125-6.689c-3.022,0.258-5.631,3.451-5.847,7.312l0.02-0.019
	c-2.375,0.897-4.749,1.793-7.123,2.69c-4.721-1.235-8.803,0.139-12.474,3.607c-2.171-6.531-5.649-9.799-12.417-6.877
	c-0.701,0.302-2.167-0.037-2.683-0.611c-3.157-3.517-4.936-1.189-6.695,1.407C336.685,111.829,335.105,114.248,333.507,116.653z"/>
<path id="Pogragje_1_" fill="#353535" stroke="#FFFFFF" stroke-width="1.5" stroke-miterlimit="10" d="M876.909,298.004
	c2.983-1.133,6.073-3.394,8.933-3.135c4.438,0.406,8.889,0.743,13.313,1.179c3.755,0.37,3.2,5.356,5.041,8.053
	c2.766,4.054,7.292,7.95,5.036,13.981c-0.394,0.117-0.785,0.232-1.179,0.35c-4.986,1.139-9.837,2.535-13.03,7.01l0.004-0.005
	c-2.061-0.44-3.948,0.231-5.704,1.115c-8.729,4.394-17.622,6.587-27.14,2.513c-0.804-0.344-1.466,0.314-1.879,1.056
	c-3.598,3.792-8.753,4.924-12.994,7.614c-0.114-0.273-0.282-0.794-0.342-0.781c-0.903,0.182-0.973,0.78-0.67,1.523l0.043-0.047
	c-2.753,0.354-3.871,2.026-3.772,4.679l0.063-0.07c-1.385,0.221-1.551,1.185-1.419,2.332l0.051-0.151
	c-2.824,0.501-6.521,2.354-5.087,4.73c2.898,4.791,0.036,7.711-2.025,10.721c-1.908,2.783-2.507,5.319-1.763,8.608
	c1.59-1.4-0.082-3.782,1.912-4.751c0.126,1.918,0.246,3.837,0.371,5.757c-0.494,1.446-0.633,2.848,0.491,4.101
	c0.052,0.209,0.152,0.393,0.305,0.548c-0.004,2.512-0.008,5.021-0.012,7.53c-4.108-4.033-8.229-8.368-14.241-8.982
	c-3.166-0.325-6.177-0.647-9.064-1.948c0.716-5.069-3.767-3.271-5.767-3.875c-12.208-3.694-21.439,1.895-22.801,13.378
	c-3.675,1.373-6.944,1.693-10.896-0.326c-5.397-2.761-11.305-4.896-17.689-4.247c0.236-1.938,3.406-3.049,2.294-4.956
	c-4.665-8.011-0.607-13.438,4.729-18.929c3.725-3.831-0.013-8.618,0.766-12.519c1.261-6.323-2.438-9.426-5.608-13.264
	c-1.465-0.819-3.576,0.484-4.71-1.432c5.004,0.819,8.034-3.01,11.833-5.022c3.918-0.307,4.346-3.345,4.627-6.239
	c0.194-2,0.224-4.447,1.722-5.417c4.124-2.666,5.417-5.977,3.476-10.183c3.307-1.249,2.762,3.963,5.858,2.741
	c0.389,0.424,0.777,0.848,1.168,1.272c1.011,4.079,11.191,7.949,15.661,5.861c1.258-0.587,2.227-1.633,1.903-3.282l-0.021,0.017
	c4.368-2.869,3.609-7.771,4.729-11.926l0.011,0.008c0.918,0.124,1.315-0.27,1.188-1.187l0.019,0.02
	c1.054,0.06,1.281-0.677,1.438-1.485c0.906-1.254,1.862-2.424,3.656-2.216c2.828-0.453,4.358,2.13,6.722,2.897
	c3.896,1.266,5.953,0.428,6.028-3.879c3.102-1.621,5.422,1.711,8.331,1.314l-0.057-0.079c0.524,4.121,3.07,5.5,6.841,4.705
	c4.528-0.955,1.755-4.029,1.786-6.396c0.025-1.859-1.387-3.631-0.277-5.509c2.577,0.628,1.752,4.706,4.862,4.79l-0.051-0.051
	c-0.059,0.867,0.366,1.274,1.214,1.283l-0.066-0.083c-0.64,6.221,3.845,7.281,8.364,8.302l0.023,0.018
	c2.854,6.547,16.987,8.555,22.646,3.215C876.371,298.571,876.64,298.288,876.909,298.004z"/>
<path id="Shillov_1_" fill="#353535" stroke="#FFFFFF" stroke-width="1.5" stroke-miterlimit="10" d="M685.218,190.621
	c-0.393,5.581-3.201,6.468-7.653,6.568c-5.776,0.131-9.928,3.478-11.19,8.634c-1.058,4.322-2.777,3.923-6.025,3.381
	c-5.58-0.931-10.955,2.349-12.669,7.163c1.371,9.552,1.037,19.581,7.994,27.542c0.86,0.987,1.593,2.435,1.659,3.709
	c0.365,6.649,2.334,12.596,7.338,17.487c2.213-1.574,1.104-3.769,0.601-6.018c-0.889-3.952,0.491-6.487,3.814-9.387
	c5.006-4.37,10.077-5.695,16.375-5.12c2.775,0.252,5.405-0.839,7.639-3.299c3.06-3.374,7.745-3.18,11.962-3.767
	c3.513-4.244,6.467-0.24,9.62,0.722c0.793,0.241,1.017,1.912,2.273,0.958c0.883-0.669,0.9-1.605,0.786-2.658
	c-0.454-4.1-1.269-8.112-0.212-12.368c0.421-1.682-0.86-4.875-2.336-5.756c-7.33-4.375-10.472-15.002-21.162-14.292
	c-0.194,0.013-0.502,0.021-0.571-0.089c-2.14-3.25-4.255-6.516-6.374-9.778c0.533-1.337,1.067-2.674,1.602-4.011
	c-1.12,0.001-2.243-0.304-3.365-0.727C685.279,189.883,685.243,190.251,685.218,190.621z"/>
<path id="Perlepnic_1_" fill="#353535" stroke="#FFFFFF" stroke-width="1.5" stroke-miterlimit="10" d="M750.007,155.221
	c-3.523-6.643-8.149-12.67-9.965-20.3c-0.643-2.709-0.999-5.703-2.739-8.484c-5.803-9.273-12.725-18.038-15.559-28.905
	c-1.055-4.04-3.363-3.808-6.01-1.959c-5.053,3.531-10.39,3.091-12.771-2.199c-4.323-9.605-12.395-10.914-21.364-11.247
	c-4.764-0.176-6.024,2.454-6.129,6.471c-0.136,5.134,0.211,10.351-0.604,15.378c-1.233,7.599,0.104,14.588,2.627,21.693
	c4.096,11.531,10.346,22.585,8.728,35.538c-0.462,3.7-2.423,8.194-1.013,10.954c3.148,6.164,0.769,11.604,0.111,17.357
	c1.122,0.422,2.244,0.728,3.365,0.727c0.014-0.032,0.026-0.065,0.039-0.097c-1.525-4.51-0.157-6.403,4.238-5.479
	c4.357,0.916,8.806,1.786,12.908,3.434c3.641,1.463,6.033-0.729,6.71-2.82c1.588-4.912,6.055-8.198,6.881-13.36
	c0.275-1.712,1.691-2.225,2.955-2.473c2.604-0.51,3.562-2.214,3.974-4.521c0.091-0.724,0.185-1.449,0.274-2.173
	c-1.243-3.37,0.933-3.546,3.302-3.524c5.981,0.056,11.965,0.12,17.947,0.181C750.807,159.107,751.462,157.966,750.007,155.221z"/>
<path id="Velekinc_1_" fill="#353535" stroke="#FFFFFF" stroke-width="1.5" stroke-miterlimit="10" d="M669.856,310.256
	c-1.819-0.367-4.62,2.528-6.508,4.398c-7.298,7.224-16.147,9.215-25.995,8.359c-1.158-0.1-2.352,0.205-3.527,0.321
	c-0.324,0.419-0.651,0.838-0.979,1.258c-0.039,3.897,2.496,7.972-0.792,11.646c-0.139,0.688-0.275,1.38-0.416,2.067
	c0.173,0.811,0.346,1.617,0.518,2.426c0.338,0.447,0.678,0.896,1.016,1.346c3.941,0.833,1.713,3.577,1.449,5.404
	c-0.428,2.976-2.283,4.702-5.565,4.258c0.019,0.71,0.035,1.419,0.051,2.13c1.943,0.988,4.064,1.737,5.801,3.01
	c6.667,4.897,13.266,8.928,20.566,1.095c0.264-0.282,0.575-0.52,0.865-0.776c3.458-5.116,9.366-4.182,14.251-5.771
	c8.629-1.398,12.406-4.926,11.957-11.165c-1.517-1.905-4.069,2.34-5.189-0.771c-0.608-1.692-0.94-3.756,1.39-4.814
	c0.363-4.297-2.085-6.696-5.434-8.873c-4.68-3.036-4.559-5.713-0.021-8.425c1.447-0.175,2.894-0.348,4.338-0.521
	c0.295-1.228,0.572-2.373,1.269-3.067c-1.649-1.396-3.483-2.791-5.133-4.186C673.212,310.348,672.095,310.708,669.856,310.256z"/>
<path id="Malishev_1_" fill="#353535" stroke="#FFFFFF" stroke-width="1.5" stroke-miterlimit="10" d="M759.308,297.489
	c-3.37-2.929-3.408-5.621-3.087-9.104c-1.872-2.658-3.623-5.21-7.442-5.601c-1.671-0.17-3.844-1.925-3.77-3.81
	c0.181-4.453-2.712-8.373-1.882-12.847c-0.08-1.583-0.159-3.166-0.239-4.749c-2.305-2.043-5.466-3.091-6.997-6.028
	c-2.037-0.238-2.604-1.319-1.798-3.186c-1.286-2.287-0.563-3.985,1.544-5.278c1.282-3.272,2.306-4.325-3.246-4.472
	c-6.574-0.172-13.778-0.327-20.254-3.268c-2.125-0.965-4.64-1.07-6.989-1.543c0.812,1.096-0.103,2.195-0.739,2.207
	c-8.281,0.167-13.609,10.359-23.261,6.669c-1.602-0.612-6.07-0.486-6.878,3.636c-0.117,0.619-0.893,1.527-1.438,1.583
	c-7.716,0.794-6.14,5.625-4.377,10.282c0.664,1.756,0.767,3.126-0.759,4.122c-3.648,2.382-2.509,4.706-0.046,6.993
	c6.801,6.315,7.766,14.269,6.78,22.915c-0.335,2.917,0.327,5.962-0.114,8.849c-0.218,1.422,0.333,3.57-0.552,4.75
	c1.648,1.396,3.482,2.791,5.133,4.186c0.612-0.611,1.543-0.876,3.137-0.493c3.877,0.934,8.779-1.518,11.298,3.646
	c0.722,0.07,1.443,0.141,2.166,0.211c7.063-2.447,13.179-0.307,16.625,5.804c1.223-0.304,2.448-0.605,3.674-0.91
	c0.277-0.042,0.548-0.109,0.813-0.203c1.408-4.725,2.301-9.875,8.646-10.56c1.414-1.011,2.856-1.883,4.659-0.92
	c0.912,0.07,2.518-0.092,2.631,0.244c1.412,4.257,5.893,5.553,8.28,8.813c1.213,1.173,2.425,2.349,3.638,3.521
	c3.08-0.562,5.519,1.01,8.003,2.418c5.004,0.819,8.034-3.01,11.835-5.022C768.677,310.9,767.833,304.898,759.308,297.489z"/>
<path id="Gjilan_1_" fill="#353535" stroke="#FFFFFF" stroke-width="1.5" stroke-miterlimit="10" d="M672.438,295.555
	c-0.207-7.026,0.068-13.685-5.029-19.131c-5.528-5.905-8.161-13.613-10.571-20.755c-1.282-3.803-2.126-8.129-3.907-12.011
	c-0.324-0.709-0.704-1.688-1.307-1.929c-3.321-1.329-4.433-2.943-4.147-7.117c0.282-4.123,0.408-8.994-3.669-12.821
	c-2.294-2.155,0.729-4.898,2.892-6.687c-2.383-0.203-4.504-1.147-6.397-2.538c-7.488-5.502-11.255-6.009-19.104-0.69
	c-2.717,1.842-3.912,1.44-6.446,0.229c-7.496-3.584-12.522-0.354-12.873,7.954c-0.175,4.128-1.202,8.302-1.037,12.272
	c0.24,5.781-2.475,7.555-7.202,9.168c-8.595,2.932-13.828,10.453-20.401,16.136c3.432,5.509,4.86,11.692,6.548,17.875
	c1.202,4.402,0.432,8.779,1.059,13.157c0.583,4.083,2.594,6.655,4.732,9.536c1.379,1.859,2.362,1.555,4.109-0.045
	c3.166-2.898,5.465-6.667,9.37-8.845c4.19-2.338,6.875-1.174,7.423,3.537c0.753,6.478,3.451,12.027,9.691,14.444
	c3.587,1.389,3.704,3.458,3.491,6.315c0.052,0.352,0.106,0.701,0.167,1.052c0.004,6.561,3.938,7.637,9.477,7.2
	c11.825-0.935,23.327-2.267,33.647-9.251C669.333,308.291,672.678,303.746,672.438,295.555z"/>
<path id="Bresalc_1_" fill="#353535" stroke="#FFFFFF" stroke-width="1.5" stroke-miterlimit="10" d="M482.651,179.256
	c-0.354-1.546-0.704-3.09-1.056-4.636c0.024-1.083-0.375-1.975-1.465-2.241c-9.28-2.269-16.921-8.927-26.664-9.944
	c-2.561-2.962-2.395-8.076-7.273-9.206l-0.011,0.065c-1.084-4.304-4.544-5.325-8.265-5.983l0.054,0.051
	c0.436-2.732-3.159-2.414-3.47-4.583c3.873-1.147,7.165-3.729,11.292-4.368c1.402-0.218,3.236-1.247,3.843-2.433
	c6.288-12.27,16.903-21.257,24.445-32.558c5.922-2.981,6.563-9.215,8.878-14.416c2.69-2.149,4.269,0.297,5.666,1.711
	c5.532,5.603,11.597,10.68,15.621,17.723c3.195,5.591,9.184,8.3,14.341,11.788c1.865,3.215,3.077,6.864,6.145,9.286l-0.132-0.116
	c0.306,0.739,0.611,1.477,0.916,2.215c0.748,4.594,3.06,8.345,6.232,11.646c4.729,4.923,5.195,10.675,2.843,17.428
	c-2.261,6.484-2.95,13.374-1.626,20.283c-1.548,3.357,2.079,7.163-0.896,10.393c-1.923,2.089-1.552,4.127-0.035,6.276
	c1.127,1.598,1.575,3.429,1.125,5.402c-0.128,0.404-0.255,0.808-0.382,1.211c-5.228,2.413-4.698,7.581-5.744,11.995l0.044-0.038
	c-3.389-0.158-5.65,1.102-5.986,4.775l0.049-0.053c-1.244-0.254-1.991,0.257-2.272,1.481c-3.824,1.476-5.182,6.286-9.528,7.056
	c-2.111-3.732-6.887-5.573-7.468-10.459c-0.032-0.264-1.347-0.376-2.064-0.559c-0.984-3.397-1.971-6.793-2.952-10.187
	c-1.342-4.563-0.296-10.8-3.81-13.513C487.559,190.519,484.967,185.178,482.651,179.256z"/>
<path id="Bilinic_1_" fill="#353535" stroke="#FFFFFF" stroke-width="1.5" stroke-miterlimit="10" d="M847.313,337.734
	c4.24-2.69,9.396-3.822,12.994-7.614c1.547,0.761,3.021,1.783,4.649,2.239c8.451,2.375,16.551,1.118,23.95-3.387
	c2.015-1.226,5.768,0.432,6.121-3.537l-0.004,0.005c5.004-1.108,9.682-2.824,13.03-7.01c0.394-0.117,0.785-0.232,1.179-0.35
	c-0.664,2.982,0.198,5.31,2.693,7.192c6.932,5.237,7.546,13.275,9.042,20.9c0.069,0.356,0.046,0.856-0.153,1.119
	c-5.541,7.232-0.028,10.022,5.033,13.526c8.199,5.674,9.102,13.586,4.936,22.981c-0.476,1.071-1.076,2.104-1.741,3.067
	c-4.902,7.129-12.568,11.996-12.877,22.639c-0.211,7.314-9.779,10.71-13.452,17.233c-0.305-3.694-1.521-6.247-6.014-5.207
	c-1.626,0.378-3.438-0.136-3.959-1.792c-1.823-5.783-11.674-4.506-10.915-12.611c0.101-1.102-1.916-0.877-3.055-1.033
	c-5.718-0.784-11.023-2.888-15.521-6.362c-2.732-2.108-5.126-1.701-8.127-1.472c-4.258,0.328-7.738,3.306-12.063,2.944
	c-0.155-0.306-0.297-0.618-0.422-0.939c-6.805-2.072-6.396-6.546-4.899-12.305c1.116-4.293,1.344-9.2-2.274-13.036
	c-0.149-0.153-0.25-0.337-0.302-0.547c0.452-1.442,0.699-2.857-0.491-4.1c-0.125-1.92-0.245-3.838-0.371-5.756
	c4.947-5.49,4.379-12.967,6.963-19.311c0,0-0.051,0.151-0.051,0.149c1.349-0.245,1.559-1.183,1.419-2.33l-0.063,0.069
	c2.207-0.794,3.618-2.229,3.772-4.678l-0.043,0.047C846.879,338.561,847.362,338.511,847.313,337.734z"/>
<path id="Doberqan_1_" fill="#353535" stroke="#FFFFFF" stroke-width="1.5" stroke-miterlimit="10" d="M839.941,247.239
	c-1.103-0.17-1.834-1.382-1.931-2.714c-0.397-5.443-4.468-8.357-8.64-9.947c-5.436-2.068-4.837-5.948-4.682-10.014
	c0.134-3.383,2.025-6.248,3.024-9.375c0.5-1.567,3.242-3.085,0.759-5.017c-2.123-1.649-4.501-1.923-7.025-0.676
	c-1.608,0.794-2.938,1.799-3.799,3.383c-6.99,3.386-14.125,1.138-21.216,0.558c-5.539,0.48-10.616,2.685-15.861,4.272
	c-1.953,3.183-4.904,4.445-8.522,4.415c-0.002,0-0.443,0.1-0.443,0.1l-0.056,0.458c-0.413,0.578-0.826,1.156-1.237,1.733
	c-2.82,2.309-5.938,4.342-8.388,6.995c-3.282,3.552-7.268,4.754-11.8,5l0.086-0.074c-4.526,2.471-5.054,5.438-1.426,9.325
	c1.758,1.882,1.609,4.841,3.894,6.336c1.305,0.945,3.951,0.521,3.412,3.346l-0.043-0.045c3.783,4.362,10.462,4.94,13.486,10.226
	c1.116,1.95,2.777,1.953,4.551,1.937c2.307-0.023,1.88-1.913,2.371-3.344c2.366-6.881,5.015-8.761,11.819-6.904
	c4.422,1.207,8.55-0.766,12.843,0.075c-0.554,1.251-1.063,2.41-1.575,3.566c1.314,0.394,1.592,1.539,1.919,2.647
	c2.236-0.461,4.473-0.923,6.711-1.385c5.875-3.487,11.957-1.92,12.885,3.969c0.618,3.926,2.639,5.158,5.688,6.386
	c3.084,1.24,3.011,1.425,0.286,4.048c-1.93,1.916-4.202,2.776-6.954,2.579c-2.448-0.177-4.699,0.352-6.125,2.655
	c2.795,0.103,3.102,2.551,4.097,4.349c1.493-0.065,2.986-0.13,4.479-0.194c3.731-2.071,6.362-0.83,8.242,2.677
	c1.463,0.431,2.14,2.854,3.896,2.034c1.771-0.829,0.676-2.813,0.796-4.263c0.146-1.733,0.229-3.481-0.731-5.167
	c-1.53-2.693-2.686-6.28,0.685-7.678c3.354-1.392,3.05,3.185,4.654,4.86c2.31,2.079,3.291,4.819,3.888,7.754
	c0.89-0.045,1.107,0.546,1.175,1.279l-0.067-0.083c1.697,3.868,6.725,4.379,8.366,8.302c-0.001,0,0.022,0.018,0.022,0.018
	c0.935,0.52,1.877,0.979,2.828,1.385c0.061-14.148,0.769-30.356,8.747-41.641C855.917,254.975,848.737,248.601,839.941,247.239z"/>
<path id="Dunav_1_" fill="#353535" stroke="#FFFFFF" stroke-width="1.5" stroke-miterlimit="10" d="M827.063,681.222
	c3.467,3.665-0.225,7.691,0.495,11.686c0.766,4.234,1.671,6.05,6.271,6.464c7.567,0.684,9.349,4.777,5.188,11.065
	c-1.692,2.558-0.726,5.307-1.588,7.938c-3.204,9.792-9.693,16.72-18.39,21.593c-4.53,2.537-7.139,7.058-11.498,9.793
	c-1.627,1.021-2.749,4.696-4.78,4.548c-3.773-0.277-7.737,0.314-11.405-1.351c-2.44-1.11-5.018-1.917-7.532-2.86
	c-3.324-6.771-7.353-13.295-9.791-20.37c-3.342-9.679-6.628-19.055-15.812-24.875l0.061,0.05c-0.279-0.271-0.559-0.543-0.837-0.819
	c-0.13-0.314-0.363-0.469-0.703-0.467l-0.219-0.284c-1.227-1.783-2.393-3.669-5.055-3.129l0.031,0.041
	c0.349-1.218-0.034-1.626-1.244-1.132l0.006,0.007c0.426-1.218,0.031-1.61-1.188-1.188v-0.003
	c-1.803-7.169-5.991-13.136-10.302-19.611c5.317-1.211,9.292-3.547,10.854-8.772c0.215-0.726,1.524-1.126,2.328-1.675
	c12.271-3.998,11.169-7.009,19.126,3.514c3.351,4.435,7.824,4.085,12.361,1.745l-0.111,0.063c5.772-1.389,11.353-1.31,16.469,2.209
	c3.953,2.323,9.313,1.804,12.296,6.086C817.129,683.972,822.102,682.956,827.063,681.222z"/>
<path id="Stanqiq_1_" fill="#353535" stroke="#FFFFFF" stroke-width="1.5" stroke-miterlimit="10" d="M758.22,704.852
	c9.184,5.82,12.47,15.196,15.812,24.875c2.438,7.075,6.467,13.601,9.791,20.37c-1.551,3.727-4.583,4.047-8,3.49
	c-3.074-4.961-7.336-5.938-14.802-3.396c-2.751,1.969-6.348,1.061-9.288,3.236c-3.99,2.957-6.589,5.656-6.508,11.269
	c0.153,10.455-9.286,16.935-19.393,14.1c-1.507-0.421-2.991-0.916-4.488-1.375c0.895-4.854,0.074-9.459-1.988-13.89
	c-0.022-3.122-0.047-6.242-0.067-9.364c0.595-5.262-1.683-9.818-3.567-14.471c2.404-9.43,1.822-10.504-7.279-14.294
	c-5.517-2.302-6.326-6.563-4.461-11.678c1.762-4.832,0.438-5.771-4.779-6.071c-4.237-0.24-7.861,2.428-11.94,1.202
	c-0.367-3.88,0.882-7.771-0.13-11.642c0.184-11.205,6.939-18.905,18.063-20.591c1.572-0.168,2.468,0.946,3.516,1.818
	c5.053,4.212,10.68,5.078,17.021,3.394c11.52-3.062,11.575-2.956,17.726,7.693c0.762,1.319,1.365,2.848,1.578,4.343
	c0.354,2.492,1.397,3.996,4.042,4.057c0,0,0,0.003,0,0.007c-0.164,0.955,0.28,1.297,1.188,1.185c0,0-0.006-0.007-0.006-0.002
	c-0.118,0.959,0.381,1.244,1.244,1.127c0,0-0.031-0.041-0.031-0.037c0.885,2.337,2.285,3.84,5.055,3.125l0.219,0.284
	c-0.004,0.3-0.009,0.598-0.013,0.89c0.239-0.138,0.478-0.28,0.716-0.423c0.278,0.276,0.558,0.548,0.836,0.819
	c-0.356,0.176-1.04,0.211-0.371,0.842C758.012,705.444,758.116,705.148,758.22,704.852z"/>
<path id="Zhegoc_1_" fill="#353535" stroke="#FFFFFF" stroke-width="1.5" stroke-miterlimit="10" d="M333.507,116.653
	c1.599-2.406,3.178-4.824,4.799-7.215c1.759-2.596,3.538-4.924,6.695-1.407c0.516,0.575,1.982,0.913,2.683,0.611
	c6.768-2.921,10.247,0.347,12.417,6.877c3.67-3.468,7.753-4.843,12.473-3.607c-0.114,1.348-2.447,0.177-2.189,2.38
	c3.356-1.464,8.441,0.979,9.313-5.07l-0.021,0.019c0.646-0.336,1.43-0.535,1.912-1.03c4.857-4.993,5.058-4.893,8,1.586
	c0.708,1.563,0.978,3.873,3.418,4.176l-0.014-0.026c0.367,1.502,0.781,2.995,1.094,4.507c0.885,4.299,2.483,6.789,7.12,3.362
	c1.479-1.091,3.768-1.354,4.932,0.117c2.4,3.035,5.346,1.636,8.152,1.661l-0.042-0.018c0.446,3.387-1.615,7.708,3.487,9.361
	c0.418,1.092,0.837,2.18,1.257,3.27c-3.487,2.54-1.27,8.769-6.552,10.204c-0.087,0.025-0.11,1.178,0.174,1.547
	c4.802,6.259,0.216,9.501-4.035,12.939c-1.521,1.232-3.5,2.697-3.13,4.758c1.122,6.242-3.989,10.017-5.605,15.151
	c-0.692,2.199-2.626,2.771-4.755,1.266c-1.437-1.015-2.929-1.954-4.396-2.928c-3.743-3.381-8.846-3.34-10.945,0.762
	c-1.479,2.891-3.757,3.545-6.19,4.53c-0.625-0.118-1.252-0.234-1.879-0.352c-0.392-2.895-2.652-2.254-4.478-2.312
	c-4.498-0.141-8.993,1.515-13.497,0.034l0.056,0.007c-0.591-8.815-3.486-12.823-9.458-13.104c-4.869-9.304-9.427-18.75-13.176-28.57
	c0.612-6.691,1.225-13.384,1.837-20.076C333.146,118.926,333.326,117.79,333.507,116.653z"/>
<path id="Llashtic_1_" fill="#353535" stroke="#FFFFFF" stroke-width="1.5" stroke-miterlimit="10" d="M663.771,461.765
	c-2.128-5.074-2.771-10.771-6.385-15.227c-1.466-4.328-5.094-6.805-8.281-9.657c-0.352-0.303-0.701-0.604-1.055-0.904
	c1.511-1.156,3.238-1.644,5.113-1.67c0.424,1.647,1.528,2.146,3.045,1.635c1.445-0.486,1.354-1.779,1.14-2.92
	c-0.489-2.604-1.537-4.71-4.757-4.425c-0.366-0.338-0.73-0.678-1.098-1.018c-0.746-5.526-2.563-10.026-9.358-9.74l0.063,0.03
	c-0.478-1.351-1.793-1.005-2.761-1.364c-1.782-1.495-2.285-3.45-2.029-5.673c3.871-4.747,7.232-4.807,13.101-1.67
	c6.637,3.547,14.623,4.85,21.35,8.771c11.384,6.642,24.416,5.79,36.724,8.177c3.01,0.585,5.235,1.803,7.662,3.486
	c6.146,4.269,11.174,10.77,19.819,10.393c5.217-0.228,9.201-2.866,12.964-6.077c0.51,0.265,1.036,0.553,1.562,0.838
	c0.195,0.703,0.389,1.406,0.583,2.109c-2.337,3.514-7.414,3.096-9.666,6.733c-0.808,0.049-1.744,0.253-1.614,1.169
	c0.078,0.552,0.854,1.314,1.777,0.661l0.034-0.044c-0.166,1.384,0.202,2.097,1.719,1.36c0.127,0.19,0.28,0.356,0.46,0.497
	c-0.412,2.856,2.208,3.492,3.563,3.157c7.229-1.797,9.75,1.015,8.682,7.98c-0.338-0.466-0.653-0.455-0.871,0.06
	c-0.06,0.146,0.053,0.366,0.087,0.552c0.236-0.239,0.472-0.479,0.708-0.721c0.41,0.028,0.817,0.058,1.229,0.083
	c-1.366,5.526-4.301,10.93-1.337,16.797c-2.655-1.212-2.937-4.464-4.802-5.766c-5.863,4.363-9.308,10.954-15.226,15.162
	c-0.95,0.068-2.172-0.22-2.808,0.266c-3.669,2.797-7,1.864-11.132,0.55c-4.97-1.58-8.87-4.942-14.188-6.236
	c-7.334-1.785-14.484-1.559-21.745-1.905l0.066,0.075c-0.666-0.771-1.329-1.54-1.993-2.309c-0.199-0.492-0.4-0.984-0.602-1.476
	c-0.541-0.798-1.05-1.665-2.251-1.041l0.099,0.037c-3.613-2.885-7.211,2.078-10.822,0.022l0.077,0.079
	c-0.416-2.96-2.858-4.302-4.814-6.032l0.068,0.093c-0.125-0.976-0.3-1.923-1.259-2.472l0.082,0.104
	C664.388,463.453,664.079,462.608,663.771,461.765z"/>
<path id="Gadish_1_" fill="#353535" stroke="#FFFFFF" stroke-width="1.5" stroke-miterlimit="10" d="M371.679,184.084
	c0.626,0.118,1.253,0.234,1.882,0.352c2.146,1.048,4.317,1.715,6.136-0.491c1.158-1.406,1.376-3.706,3.813-3.835
	c2.831,0.659,4.858,3.537,8.141,2.946l-0.095-0.097c-0.421,1.383,0.72,1.081,1.39,1.288c1.735,1.099,2.511,2.37,2.199,4.703
	c-0.476,3.541-0.112,7.118,3.454,9.323c0.645,4.173,0.949,8.323-0.886,12.317c0.938,8.406-0.9,16.72-1.543,25.007
	c-0.554,7.134,1.622,11.004,7.477,13.793l-0.106-0.109c4.438,4.316,9.864,5.443,15.626,4.062c3.911-0.938,5.916,0.112,6.533,3.953
	c0.84,5.23,4.021,10.134,1.736,15.833c-0.649,1.622-0.748,4.29,1.236,5.397c7.133,3.974,7.489,12.181,11.61,18.008
	c-4.447,2.453-7.8,6.763-13.114,7.737c-1.576-0.479-3.153-0.956-4.729-1.433l0.063,0.065c-2.357-4.76-4.978-9.789-10.753-10.33
	c-3.184-0.299-4.669-0.586-4.919-3.902c-0.197-2.638-4.239-5.156-2.302-7.299c4.531-5.009-0.829-5.489-2.737-7.609
	c-1.219-2.273-1.51-6.129-5.201-5.127c-4.939,1.341-9.598-0.67-14.386-0.248l-0.029-0.017c-0.662-2.78-2.97-2.135-4.769-2.098
	c-4.289,0.09-8.569,0.503-12.857,0.617c-2.83,0.074-5.856-0.893-5.041-4.209c1.187-4.831-0.767-8.609-2.515-12.623
	c0.027-1.126-1.655-2.687,0.886-3.171c1.256-0.238,3.745,0.754,2.986-1.984c-0.504-1.814-2.235-2.739-4.253-1.915
	c-3.038,1.245-3.408-0.361-3.117-2.777c-2.234-5.642,0.398-12.188-3.274-17.617c-0.383-0.564-0.004-2.05,0.51-2.746
	c2.431-3.273,1.831-8.013,5.494-10.75c1.572-1.174,0.565-2.56-0.637-3.929c-3.444-3.926-4.556-8.879-5.468-13.864
	c4.817-0.178,4.654-3.672,4.687-7.038C360.43,184.123,366.101,188.421,371.679,184.084z"/>
<path id="Kishnapol_1_" fill="#353535" stroke="#FFFFFF" stroke-width="1.5" stroke-miterlimit="10" d="M353.494,240.21
	c-0.291,2.416,0.08,4.022,3.117,2.777c2.018-0.824,3.749,0.1,4.253,1.915c0.759,2.738-1.73,1.746-2.986,1.984
	c-2.541,0.484-0.859,2.045-0.884,3.171c-0.554,0.157-1.448,0.15-1.613,0.495c-1.985,4.126,0.887,15.205,4.697,17.445
	c1.536,0.903,1.042,1.713,0.721,2.778c-2.514,0.552-5.028,1.104-7.542,1.656c-0.391-0.462-0.782-0.924-1.173-1.387
	c-2.868,0.229-3.679,3.553-6.285,4.172c-1.307-3.679-1.475-3.716-3.991-0.86l0.063-0.049c-2.589,0.895-5.384,0.807-5.253,5.323
	c0.078,2.695-1.849,6.84-6.682,5.51c-1.93,0.964-3.86,1.929-5.791,2.894c-3.132,1.864-6.402,0.652-9.628,0.427l0.134-0.054
	c-0.786-1.132-1.544-1.836-3.232-1.949c-7.039-0.47-14.89,1.023-19.42-6.706c-1.36-2.32-3.137-0.091-4.634-0.609
	c1.065-15.901-0.202-32.1,7.129-47.127c2.694-5.521-3.321-6.679-6.108-8.382c-3.776-2.308-5.344-5.63-5.73-9.18
	c-0.429-3.929,2.29-6.172,6.496-5.297c10.792,2.245,21.647,3.613,32.66,2.238c4.842-0.604,9.793-1.155,14.392-2.659
	c3.74-1.224,3.914-5.996,6.247-8.843c1.702-2.076,2.487-4.892,4.769-6.607c5.282,8.039,6.286,16.231,2.09,25.256
	c-3.273,7.034,1.602,13.763,2.154,20.705C351.491,239.62,352.787,239.892,353.494,240.21z"/>
<path id="Shurdhan_1_" fill="#353535" stroke="#FFFFFF" stroke-width="1.5" stroke-miterlimit="10" d="M812.095,681.483
	c-2.983-4.282-8.343-3.763-12.294-6.082c-4.006-8.899-8.765-9.539-16.471-2.214l0.111-0.063c-6.499,0.104-12.182-1.386-14.477-8.368
	c-1.887-5.733-6.581-4.177-9.515-2.718c-2.699,1.344-5.775,2.176-8.239,4.063c-3.02-0.629-4.61,1.163-5.896,3.475l0.078-0.074
	c-4.562,0.829-6.061,5.529-9.626,7.619c-2.181-0.03-4.188,0.729-6.272,1.229c-8.232,1.971-16.377,2.86-23.017-4.179
	c-3.002-3.968-0.756-8.527-1.438-12.756c0.363-0.151,0.731-0.303,1.098-0.452c4.611-0.692,5.792-4.005,6.104-7.982l-0.037,0.045
	c1.092,0.141,1.029-0.607,1.019-1.32c0.425-0.438,0.851-0.876,1.272-1.314c3.128-5.599,7.872-9.975,14.222-8.975
	c5.458,0.859,6.771-3.184,8.954-5.498c1.996-2.11,1.165-5.916-1.22-8.578c-1.69-1.888-3.215-3.923-4.812-5.892
	c1.038-0.705,2.077-1.409,3.117-2.116c4.964,0.64,9.773,0.253,14.277-2.161c7.476,2.278,13.793,0.463,20.14-4.141
	c3.22-2.337,7.698-3.549,11.679-4.764c6.347-1.936,10.743,1.411,11.821,8.977c1.117,7.847,2.121,15.833-0.03,23.738
	c-2.85,0.729-2.636,4.015-1.686,4.525c2.493,1.345,2.319,6.033,6.413,5.021c6.675,4.48,10.619,11.719,16.842,16.651
	c0.894,1.297,1.569,2.928,3.665,2.314l-0.021-0.023c0.627,4.979,6.418,5.206,8.308,9.026l0.401-0.004c0,0,0.088,0.392,0.087,0.396
	C822.02,680.985,816.936,680.551,812.095,681.483z"/>
<path id="Sllakovc_i_eperm_1_" fill="#353535" stroke="#FFFFFF" stroke-width="1.5" stroke-miterlimit="10" d="M426.083,306.107
	c1.803,4.688-0.288,8.813-5.678,10.888c-2.33,0.896-4.739,1.63-7.164,2.225c-3.212,0.79-5.256,2.143-5.03,6.007
	c0.169,2.888-1.035,4.731-4.691,4.979c-10.078,0.684-19.674,4.235-29.23,6.972c-8.06,2.309-17.023,4.445-22.915,12.183
	c-3.211,4.217-11.331,3.813-16.226,0.201c-6.489-4.793-12.601-9.982-16.28-17.418c2.851-3.847,0.559-9.341,4.146-12.954
	c0.065-0.204,0.061-0.408-0.015-0.609c0.23-0.901,0.425-2.748,1.143-2.321c4.222,2.513,5.99-1.552,8.411-3.13
	c2.084-1.358,4.104-3.785,6.389-2.559c2.331,1.25,3.093,4.175,3.113,7.141c0.04,6,6.419,9.904,11.853,7.459
	c5.834-2.624,9.246-9.218,8.344-16.266c-0.213-1.657,0.896-4.438-2.699-3.65c-0.615-1.894-0.184-4.294-2.577-5.33
	c0.736-1.736,2.174-2.536,3.916-2.928c3.134-1.252,6.701-2.376,2.401-6.382c-2.099-1.957-2.82-4.593-3.796-7.118
	c0.858-3.866-1.282-8.092,1.412-11.737c6.805-2.908,13.897-4.018,21.266-3.389l0.029,0.017c3.595,1.625,7.053,3.704,11.229,3.427
	c2.549,1.685,5.1,3.37,7.649,5.056l-0.087-0.113c-0.274,1.135,0.165,1.562,1.294,1.298l-0.125-0.103
	c-0.075,0.151-0.243,0.332-0.207,0.45c0.086,0.27,0.27,0.511,0.413,0.765c-0.821,1.736-2.116,2.477-0.73,5.522
	c2.58,5.675,4.538,10.622,11.484,11.775c1.342,0.222,2.753,1.81,3.989,3.087c1.376,1.42,2.611,3.881,5.388,3.351
	c0,0-0.064-0.065-0.064-0.063C422.054,305.709,423.966,306.021,426.083,306.107z"/>
<path id="Uglar_1_" fill="#353535" stroke="#FFFFFF" stroke-width="1.5" stroke-miterlimit="10" d="M762.784,340.059
	c1.261-6.323-2.438-9.426-5.608-13.264c-5.881,4.146-8.785-1.546-12.714-3.847c-1.212-1.174-2.424-2.35-3.637-3.522
	c-5.317-0.854-6.778-1.963-8.526-5.936c-0.514-1.164-1.573-2.089-2.384-3.123c-1.804-0.961-3.246-0.089-4.66,0.922
	c-3.379,3.12-4.479,8.108-8.657,10.56c-0.253,0.094-0.522,0.161-0.801,0.203c-0.635,2.656-1.941,2.6-3.632,0.991
	c-1.141-0.086-2.654,0.261-3.354-0.341c-3.869-3.318-8.407-4.82-13.313-5.544c-0.723-0.07-1.444-0.141-2.166-0.211
	c-2.646,3.467-3.065-1.651-5.471-1.492c-3.481,0.229-6.725,1.896-10.231,1.406c-1.444,0.174-2.891,0.348-4.337,0.521
	c-2.73,3.441-0.928,5.756,2.073,7.496c4.447,2.576,6.005,6.491,5.815,11.37c1.076,0.398,1.841,1.088,2.093,2.254
	c1.693,2.642,2.127,6.279,7.225,5.12c2.74-0.623,6.841,1.487,7.908,4.306c3.597,9.484,10.596,15.979,17.873,22.362
	c0.421,0.368,1.165,0.447,1.455,0.87c5.205,7.577,5.179,7.548,13.358,4.07c7.114-3.025,14.085-4.269,20.194,2.189
	c1.366,0.182,2.742,0.408,3.706-0.959c0.236-1.938,3.407-3.049,2.295-4.956c-4.665-8.011-0.607-13.438,4.729-18.929
	C765.743,348.746,762.007,343.959,762.784,340.059z"/>
<path id="Livoq_i_eperm_1_" fill="#353535" stroke="#FFFFFF" stroke-width="1.5" stroke-miterlimit="10" d="M506.38,257.817
	c5.487-1.704,9.746-5.324,14.262-8.566c1.594-1.144,2.898-2.49,4.797-0.07c7.402,9.447,16.687,11.13,27.183,5.747
	c7.045-3.613,12.789-0.663,18.572,2.889c-0.571,1.175-2.02,2.552-0.409,3.627c6.362,4.249,5.246,10.837,6.167,17.089
	c0.962,6.515-0.213,13.919,5.284,19.167c3.119,2.977,3.965,6.045,1.711,9.809l-0.024,0.025c-2.242,0.268-4.655,0.29-4.878,3.429
	l0.028-0.032c-3.202,0.795-5.124,2.849-5.907,6.019l0.024,0.005c-1.272-0.479-1.668-0.084-1.188,1.188l0.014-0.027
	c-2.798,0.075-5.392-1.635-8.26-0.95c-5.77-0.325-9.628-3.986-13.766-7.454c-2.938-2.461-6.18-7.104-10.469-1.422
	c-2.646,1.252-4.144,4.773-7.832,3.961l0.098,0.089c-1.827-3.56-3.384-7.299-5.581-10.615c-1.406-2.123,1.241-5.663-2.6-6.658
	c-1.172-4.195-3.755-7.915-4.177-12.359c-0.328-3.466-4.431-2.731-5.686-5.152c-2.358-6.978-5.813-13.088-12.916-16.309
	c0,0,0.055,0.063,0.056,0.063c0.017-2.28-1.827-0.839-2.697-1.348c-4.429-1.847-3.949-5.917-4.349-9.59"/>
<path id="Livoq_i_Poshtom_1_" fill="#353535" stroke="#FFFFFF" stroke-width="1.5" stroke-miterlimit="10" d="M539.523,308.289
	c4.291-5.682,7.53-1.039,10.469,1.422c4.138,3.468,7.996,7.129,13.765,7.454c-0.492,2.514-3.795-0.041-4.706,3.504
	c4.663-0.833,9.104,0.806,12.966-2.554l-0.014,0.027c0.931,0.139,1.326-0.256,1.188-1.188c0,0-0.024-0.005-0.023-0.005
	c3.294-0.705,5.214-2.757,5.906-6.019l-0.028,0.032c2.002-0.606,4.679-0.255,4.878-3.429l0.024-0.025
	c3.384,0.322,4.813-2.324,5.815-4.59c2.349-5.302,6.631-8.509,11.115-11.649c2.691-1.885,3.515-0.443,4.103,2.045
	c1.637,6.911-0.72,16.489,11.225,16.671c1.17,0.017,2.304,2.358,3.455,3.622c0.052,0.352,0.106,0.702,0.167,1.05
	c-2.801,9.44-2.656,9.641,6.903,9.5c1.177-0.017,2.354-0.033,3.53-0.049c0.177,2.123,2.52,3.925,0.748,6.361
	c-1.584,2.179-0.406,4.043,1.048,5.77c-0.139,0.688-0.275,1.38-0.412,2.063c-0.571,0.964-2.363,2.188,0.514,2.431
	c0.338,0.447,0.678,0.896,1.018,1.346c-0.392,2.816,1.414,6.625-4.486,6.264c-2.644-0.161-1.158,2.308,0.368,3.398
	c0.019,0.71,0.035,1.419,0.05,2.13c-6.971-2.337-10.533,3.486-15.367,6.35c-5.972,3.538-9.958,4.84-13.188-2.912
	c-0.214-5.013-0.342-10.094-7.59-9.467c-0.365-0.092-0.573-0.324-0.624-0.697c0.078-1.181,0.068-2.135-1.336-2.799
	c-8.506-4.026-16.804-3.007-25.039,0.781c-1.57-0.438-3.139-0.875-4.71-1.314c-0.656-3.22-3.34-3.57-5.865-4.145l0.016,0.013
	c0.086-0.888-0.358-1.245-1.203-1.202l0.019,0.018c0.043-0.846-0.327-1.279-1.204-1.203l0.029,0.028
	c-2.119-3.796-5.85-5.447-9.535-7.159l0.022,0.023c-0.84-3.563-1.701-7.115-4.725-9.604l0.063,0.079
	c-0.407-0.529-0.815-1.057-1.225-1.587c-0.375-0.491-0.75-0.983-1.122-1.469c-1.177-2.662,0.854-4.079,2.151-5.877
	C539.342,310.808,541.811,310.031,539.523,308.289z"/>
<path id="Sllubic_1_" fill="#353535" stroke="#FFFFFF" stroke-width="1.5" stroke-miterlimit="10" d="M842.64,400.272
	c0.125,0.318,0.267,0.632,0.421,0.938c0.782,3.423,3.063,4.81,5.586,2.317c3.486-3.443,7.049-2.24,10.649-1.256
	c3.734,1.02,7.359,2.467,10.988,3.842c4.6,1.748,9.837,2.619,10.98,8.883c0.318,1.734,2.498,2.686,4.188,2.759
	c2.262,0.099,3.402,0.9,4.538,2.866c1.043,1.812,3.119,3.142,5.42,2.984c2.951-0.197,4.703,1.504,6.467,3.372
	c-3.813,7.491-8.424,14.674-9.946,23.112c-1.15,6.378-4.533,9.061-11.076,8.266c-6.491-0.786-13.384,1.531-19.436-2.566
	c-0.797-0.538-1.476-1.244-2.208-1.873c-2.269-6.211-7.587-9.223-12.876-12.266c-0.307,0.015-0.607-0.021-0.904-0.101
	c-0.651-1.08-1.303-2.161-1.953-3.239c-0.984-4.169-3.909-7.698-3.995-12.161c-1.625-6.359-3.251-12.719-4.88-19.076
	C833.501,400.341,838.064,400.297,842.64,400.272z"/>
<path id="Kmetoc_1_" fill="#353535" stroke="#FFFFFF" stroke-width="1.5" stroke-miterlimit="10" d="M687.085,194.254
	c0.546-1.369,1.093-2.739,1.64-4.109c1.247-2.065,2.285-3.809,5.501-2.728c2.367,0.797,4.887,1.608,7.346,2.003
	c8.44,1.357,7.426,3.78,13.325-4.704c3.629-5.22,5.232-12.321,12.135-15.262c2.426-1.036,1.467-3.253-0.64-4.527
	c0.091-0.724,0.185-1.449,0.274-2.173c7.955-2.361,16.094-0.754,24.143-1.112c0.479,3.492,4.653,3.724,5.883,6.817
	c0.779,1.966,2.139,3.647,1.79,5.932c0.73,5.577-1.196,11.481,2.052,16.75c0.959,9.918,0.245,19.413-6.897,27.283
	c-3.476-0.588-5.554-3.435-8.305-5.188c-11.754-7.496-15.756-10.057-25.804-0.293c-2.181,2.118-5.771,2.414-8.249-0.881
	c-4.056-5.39-8.245-10.599-16.021-10.207c-1.14,0.058-1.916-0.745-1.77-1.874C694.153,194.883,690.23,195.025,687.085,194.254z"/>
<path id="Pidiq_1_" fill="#353535" stroke="#FFFFFF" stroke-width="1.5" stroke-miterlimit="10" d="M726.409,573.428
	c-1.063,1.346-2.671,2.237-2.912,4.253c-0.241,2.011,0.85,2.795,2.378,3.5c1.44,0.663,2.709,0.775,3.373-0.933
	c1.09-2.802,2.686-5.256,6.034-4.15c3.591,1.186,3.839,4.645,3.923,7.857c0.073,2.715-0.453,5.582,2.447,7.333
	c0.895,1.438-2.104,2.674-0.352,4.005c6.502,4.934,5.434,12.777,7.616,19.37c-4.347,2.699-9.765,1.338-14.188,3.74
	c-2.416-0.562-4.938-0.808-7.006-2.387c-0.594-3.868-3.343-3.459-6.18-3.293c-4.167,0.239-7.832,3.312-12.228,2.079
	c-2.616-2.466-6.459,0.574-9.047-2.018c-4.506-0.26-9.012-0.521-14.151-0.815c2.699-4.862,4.18-9.853,5.723-14.827
	c5.666-3.66,8.604-10.176,14.364-13.737c1.007-0.175,2.005-0.515,2.119-1.653c0.102-1.013-0.854-1.402-1.574-1.148
	c-3.586,1.26-6.624-1.521-10.053-1.246l0.028,0.025c-0.733-3.348,4.448-3.925,3.741-5.882c-2.057-5.689,2.901-5.378,5.223-7.587
	c2.618-2.494,5.495-3.252,8.846-3.92c3.76-0.75,7.353-2.406,10.959-3.813c2.039-0.794,1.321-1.982,0.141-3.063
	c0.104-4.609,0.205-9.222,0.311-13.832"/>
<path id="Mucibab_1_" fill="#353535" stroke="#FFFFFF" stroke-width="1.5" stroke-miterlimit="10" d="M755.94,475.145
	c-2.964-5.867-0.029-11.271,1.337-16.797c1.457-1.604,0.974-3.953,2.447-5.709c2.103-2.5,1.379-4.987-1.313-6.843
	c0.073-0.486,0.146-0.971,0.22-1.456c2.9,0.413,6.921,3.17,7.8-1.917c1.002-5.811,2.699-7.209,7.511-4.319l-0.045-0.041
	c-0.133,0.948,0.372,1.265,1.226,1.24l-0.063-0.063c0.792,0.945,0.026,3.667,2.749,2.416c2.815,2.657,4.516-0.005,6.489-1.362
	c2.098,0.266,3.583,1.483,4.648,3.191c3.908,6.271,9.436,11.087,14.527,16.297c0.356,2.389,0.103,5.196,3.688,5.369
	c5.521,3.447,9.677,7.702,9.505,14.875c-0.053,2.228-0.595,4.22-2.643,4.738c-3.196,0.813-5.63,2.179-7.363,5.086
	c-0.964,1.616-2.585,0.979-3.271-0.442c-2.459-5.079-7.49-5.974-12.031-7.702c-1.863-0.217-3.734-0.39-5.592-0.662
	c-4.237-0.625-7.837,0.478-10.656,3.801c-6.554,6.716-7.979,6.5-10.77-2.002c-1.01-3.082-4.041-3.671-5.927-5.626
	c-0.437-0.368-0.871-0.735-1.308-1.104l0.132,0.132c-0.446-0.434-0.896-0.865-1.341-1.298L755.94,475.145z"/>
<path id="Kravaric_1_" fill="#353535" stroke="#FFFFFF" stroke-width="1.5" stroke-miterlimit="10" d="M483.8,352.176
	c-2.164-0.734-2.267-3.463-1.379-5.721c-4.219-3.936-2.452-9.173-3.034-13.901c-4.66,0.277-9.122-0.206-13.379-2.46
	c-2.588-1.371-2.327-2.648-0.662-4.396c-0.059-3.144-2.685-3.684-4.807-4.738c0.679,1.773,1.359,3.548,2.045,5.341
	c-0.536,0.19-0.865,0.364-1.213,0.419c-2.97,0.471-6.97-1.498-8.708,1.658c-2.054,3.729-1.217,7.204,1.843,11.236
	c3.665,4.83,8.025,9.38,10.719,14.889c4.604,9.423,11.765,13.516,22.183,12.023c1.047-0.151,1.897-0.074,2.609,0.173
	c0.873-1.864,1.582-3.848,1.995-5.875C490.343,355.761,487.702,353.498,483.8,352.176z"/>
<path id="Vrapqiq_1_" fill="#353535" stroke="#FFFFFF" stroke-width="1.5" stroke-miterlimit="10" d="M538.835,373.548
	c0.504-3.51-2.346-3.979-3.703-3.287c-5.453,2.785-5.655-1.768-7.204-4.569c-10.001-4.814-21.779-3.013-31.597-8.466
	c-3.596-1.997-3.322,0.892-3.917,4.927c-0.127-0.467-0.263-0.905-0.403-1.33c-0.413,2.027-1.122,4.012-1.995,5.875
	c1.594,0.554,2.402,2.063,2.561,4.495c0.655,10.188,1.06,10.547,11.7,13.756c4.175,1.601,9.069-0.003,12.942,2.903
	c0.805,0.591,1.617,1.19,2.429,1.791l0.229,0.005c0,0-0.159,0.15-0.161,0.148c1.454,3.553,3.134,5.857,6.08,1.083
	c-0.682-0.498-0.916-1.122-0.167-1.671c0.26-0.19,0.836,0.049,1.271,0.09l-0.005,0.036c3.692-2.344,5.929-5.424,7.479-9.762
	c1.1-3.07,3.109,1.4,5.027,1.401C539.176,378.494,538.491,375.948,538.835,373.548z"/>
<path id="Sllakovc_i_poshtem_1_" fill="#353535" stroke="#FFFFFF" stroke-width="1.5" stroke-miterlimit="10" d="M322.999,318.579
	c0.075,0.202,0.08,0.405,0.014,0.61c-4.298,0.324-4.184,3.786-4.731,6.727c-0.373,2.003,0.641,4.297-1.289,5.964
	c-0.678-0.381-1.313-0.936-2.042-1.122c-9.378-2.405-10.596-4.397-8.867-14.499c0.348-2.032,0.022-3.896-1.977-5.058
	c-0.446-3.893-6.324-4.796-5.239-9.529c-2.842-5.492-6.241-10.716-8.083-16.694c7.81,2.155,15.561,4.724,23.866,3.43
	c0,0-0.134,0.054-0.133,0.054c3.275,1.335,6.492,1.373,9.627-0.427c1.93-0.965,3.86-1.93,5.791-2.894
	c-0.109,1.878,0.005,3.7,2.496,3.74c2.618,0.042,4.561-1.372,5.516-3.669c1.479-3.563,2.63-7.261,3.922-10.904l-0.063,0.049
	c1.177,0.996,2.578,0.955,3.991,0.86c2.606-0.619,3.417-3.943,6.279-4.175c-0.279,1.143,0.159,1.705,1.351,1.651
	c0.438,0.491,0.877,0.984,1.315,1.475c-0.007,1.484,1.334,1.321,2.169,1.776c0.019,0.438,0.038,0.875,0.056,1.312
	c-1.866,5.512,0.434,10.574,3.718,14.111c2.506,2.702,0.642,3.783,0.204,5.631c-1.742,0.39-3.179,1.19-3.917,2.925
	c-7.86-2.261-13.009,0.543-15.273,8.316c-4.699-3.025-7.909-0.979-10.919,2.878c-1.121,1.436-2.196,4.33-4.959,2.602
	c-1.377-0.86-2.749-2.409-3.848-0.546C321.001,314.824,319.926,317.314,322.999,318.579z"/>
<path id="Lipovic_1_" fill="#353535" stroke="#FFFFFF" stroke-width="1.5" stroke-miterlimit="10" d="M751.289,377.421
	c1.366,0.182,2.742,0.408,3.706-0.959c6.387-0.647,12.293,1.486,17.689,4.247c3.953,2.02,7.224,1.698,10.897,0.326
	c2.174,1.593,3.712,3.73,5.109,5.986c1.244,3.219-1.413,8.555,4.901,9.084c0.095,0.008,0.103,1.027,0.15,1.574
	c-2.812,1.255-2.853,5.065-5.748,6.242c-2.322-2.123-4.558-4.354-6.995-6.336c-1.832-1.488-2.822-4.944-6.052-3.583
	c-2.952,1.247-3.381,4.304-3.248,7.071c0.169,3.496-0.819,6.158-2.877,9.128c-3.569,5.151-6.768,11.271-4.297,17.581
	c1.822,4.664,1.422,7.724-0.798,12.157c-2.253,4.501-3.478,2.718-5.867,1.015c-2.613-1.86-3.097-6.205-7.273-6.204
	c-0.523-0.285-1.052-0.573-1.562-0.838c-0.664-0.355-1.412-0.648-2.019-1.121c-4.061-3.162-7.831-6.364-4.063-12.246
	c0.903-1.408,1.045-3.308,1.536-4.983c3.163,0.105,6.276-0.478,6.282-4.291c0.002-3.408-2.973-2.813-5.295-2.619
	c-1.729-1.479-2.428-3.455-2.718-5.627c0.256-3.517,1.027-7.313-4.251-7.83c-3.024-5.513,4.274-1.989,4.259-4.864
	c6.396,0.651,5.021-4.542,5.996-7.972C748.789,380.294,748.778,378.211,751.289,377.421z"/>
<path id="Inatoc_1_" fill="#353535" stroke="#FFFFFF" stroke-width="1.5" stroke-miterlimit="10" d="M807.16,465.151
	c-3.586-0.174-3.331-2.98-3.688-5.369c-0.066-1.905,0.27-3.726-1.627-5.306c-4.349-3.623-6.972-8.685-10.313-13.156
	c-3.65-4.883-6.176-9.715-2.104-15.549l0.007-0.396c2.521,0.217,5.073,0.254,7.56,0.683c4.719,0.815,9.935-0.346,11.273-4.293
	c2.438-7.198,7.399-6.066,12.753-6.751c4.563-0.583,10.377,0.358,13.021-5.413c0.188-0.842,0.377-1.684,0.565-2.527
	c1.627,6.357,3.254,12.717,4.879,19.076c-2.177,6.141-1.963,6.785,3.996,12.161c0.649,1.078,1.301,2.159,1.952,3.239
	c-2.872-0.143-3.528,2.729-4.105,4.179c-1.673,4.18-4.511,4.772-8.258,4.191c-3.755-4.816-3.755-4.816-9.314,1.168
	c-5.392,3.146-9.624,8.137-16.019,9.725C804.6,461.594,807.657,463.727,807.16,465.151z"/>
<path id="Nasale_1_" fill="#353535" stroke="#FFFFFF" stroke-width="1.5" stroke-miterlimit="10" d="M612.314,474.762
	c-3.853,3.474-7.584,3.255-11.48-0.076c-2.506-2.146-6.011,0.151-8.457-1.1c-7.676-3.925-16.064-4.396-24.272-5.773
	c-2.007-0.336-2.446-1.57-1.62-2.813c1.802-2.712,0.232-7.455,5.931-8.238c1.616-0.223,5.315-3.769,6.424-7.591
	c2.189-7.536,8.463-12.979,10.412-21.146c1.097-4.593,8.854-6.265,13.652-4.999c6.221,1.638,9.938-0.33,13.685-4.445
	c1.03-1.132,2.329-2.192,4.139-1.738c0.438,3.605-2.726,5.044-4.608,7.029c-3.169,3.335-4.965,6.255-2.775,11.173
	c1.084,2.432,3.805,6.409-0.872,8.869c0.696,0.902-1.7,4.453,2.22,2.591c1.03,0.287,2.062,0.576,3.092,0.863
	c4.063,4.983-2.298,3.021-3.546,4.801c1.543,0.771,2.82,1.41,4.097,2.049l0.031-0.173c-3.154,2.244-6.305-2.251-9.458-0.009
	c-3.219-0.019-4.861,1.799-4.541,4.788c0.409,3.829-1.846,8.271,2.256,11.334c0.586,0.438,1.586,0.936,2.13,0.725
	C613.428,469.063,612.194,472.509,612.314,474.762z M612.623,448.165c-0.433-0.499-0.324-1.405-1.209-0.959
	c-0.33,0.167-0.748,0.332-0.91,0.621c-0.405,0.715,0.298,0.987,0.714,0.981C611.669,448.806,612.115,448.417,612.623,448.165z"/>
<path id="Celik_1_" fill="#353535" stroke="#FFFFFF" stroke-width="1.5" stroke-miterlimit="10" d="M727.724,616.018
	c2.067,1.579,4.591,1.825,7.007,2.387c-0.229,0.316-0.221,0.627,0.03,0.931c-1.04,0.707-2.079,1.411-3.114,2.113
	c-0.649,1.999-0.649,1.999,0.432,3.686c6.063,9.459,5.671,10.479-5.275,13.677c-1.292,0.377-2.561,0.934-3.88,1.105
	c-5.548,0.721-8.425,4.239-8.424,10.478c-0.423,0.438-0.849,0.876-1.272,1.314c-0.698,0.161-1.083,0.569-1.019,1.32l0.037-0.045
	c-2.964,1.948-4.39,5.077-6.104,7.982c-0.365,0.149-0.733,0.301-1.098,0.452c-0.306-0.023-0.612-0.052-0.919-0.092
	c-0.765-2.06-2.362-3.46-3.887-4.919l0.128,0.198c-0.774-2.842,2.234-6.812-2.527-8.459l0.1,0.134
	c0.581-3.369-1.568-7.735-3.085-8.007c-5.199-0.931-8.066-6.249-13.406-6.265c-1.593-3.991-3.433-7.903-4.695-11.997
	c-0.908-2.94-0.123-5.191,3.647-5.994c4.845-1.029,9.646-1.325,14.553-1.188c1.938,0.056,4.557,1.219,5.32-2.045
	c2.588,2.592,6.431-0.448,9.049,2.018c0.472,3.37,1.952,4.521,5.104,2.471C718.616,614.548,723.097,614.386,727.724,616.018z"/>
<path id="Goden_i_vogel_1_" fill="#353535" stroke="#FFFFFF" stroke-width="1.5" stroke-miterlimit="10" d="M706.205,583.405
	c-5.761,3.563-8.698,10.078-14.364,13.737c-1.702,0.016-2.296-1.275-2.931-2.502c-2.97-5.733-7.913-8.042-13.305-4.971
	c-7.725,4.396-17.334-3.509-15.618-11.566c2.544-5.239,0.537-9.14-3.649-12.398c-2.519-0.387-1.609-2.634-2.201-4.063
	c3.193-0.171,5.529-1.27,7.806-3.979c3.181-3.792,8.717-2.505,15.12,2.559c1.233,3.909,6.841,2.136,7.931,5.844
	c1.377,4.69,3.78,5.923,8.273,3.93c1.509-0.669,3.591-0.704,4.628,1.359c1.093,2.169-1.074,2.512-2.018,3.6
	c-1.492,1.729-2.922,3.631,0.85,4.431l-0.028-0.024C699.063,582.599,703.071,581.976,706.205,583.405z"/>
<path id="Lladov_1_" fill="#353535" stroke="#FFFFFF" stroke-width="1.5" stroke-miterlimit="10" d="M618.334,454.218
	c-1.276-0.639-2.554-1.278-4.097-2.049c1.248-1.78,7.608,0.184,3.549-4.801c4.085-4.062,0.203-7.116-1.258-12.008
	c-0.979,4.682,1.038,8.362-1.837,11.145c-3.919,1.862-1.523-1.688-2.22-2.591c4.677-2.46,1.956-6.438,0.872-8.869
	c-2.188-4.918-0.394-7.838,2.775-11.173c1.883-1.985,5.046-3.424,4.607-7.029c1.067-6.864,2.685-8.097,9.202-7.077
	c2.488,0.39,4.987,0.711,7.481,1.066c-0.256,2.223,0.247,4.178,2.031,5.674c0.234,1.843,1.563,1.468,2.759,1.363l-0.063-0.03
	c2.116,2.326,5.438,3.593,5.969,7.326c0.231,1.642,1.582,2.557,3.391,2.414c0.366,0.34,0.731,0.68,1.094,1.014
	c-0.258,1.949,3.943,3.447,0.576,5.714c-1.875,0.026-3.603,0.514-5.113,1.67c-7.32-3.896-10.592,3.065-15.366,5.858
	c-1.06,0.616-1.579,2.169-3.165,2.155C623.759,445.178,622.37,451.145,618.334,454.218z"/>
<path id="Verbic_e_Kmetocit_1_" fill="#353535" stroke="#FFFFFF" stroke-width="1.5" stroke-miterlimit="10" d="M753.918,223.017
	c-1.293,3.278-1.229,7.077-3.79,9.868c-8.174,1.935-15.227,7.684-24.555,6.045c-5.021-0.881-7.043-3.399-6.03-7.404
	c1.38-5.465-0.22-10.025-2.302-14.766c1.849-0.999,4.076-1.518,5.169-2.922c3.267-4.203,7.059-4.2,11.755-3.02
	C742.123,212.82,747.969,217.93,753.918,223.017z"/>
<path id="Bukovik_1_" fill="#353535" stroke="#FFFFFF" stroke-width="1.5" stroke-miterlimit="10" d="M827.033,276.52
	c-1.93,1.916-4.202,2.776-6.954,2.579c-2.448-0.177-4.699,0.352-6.122,2.653c-0.928,2.499,0.305,6.389-4.224,6.575
	c-1.794-0.208-2.75,0.961-3.658,2.218c-1.035-0.041-1.902,0.074-1.437,1.482l-0.018-0.02c-1.25-0.458-1.645-0.061-1.188,1.187
	c0,0-0.012-0.008-0.012-0.007c-3.051,2.604-3.287,3.203-4.729,11.925l0.021-0.017c-6.428,3.034-11.931-0.22-17.564-2.579
	c-0.391-0.424-0.779-0.848-1.167-1.27c0.045-2.438-3.868-3.776-1.828-6.869c0.459-0.693-0.651-1.383-1.401-1.42
	c-1.73-0.088-6.189,5.622-5.484,7.208c0.713,1.601,2.353,3.181,0.343,4.622c-2.082,1.492-2.934-1.152-4.372-1.881
	c-2.396-1.21-3.506-3.611-5.257-5.392c-2.64-2.686-3.001-6.64-5.761-9.13c-1.872-2.658-3.623-5.21-7.442-5.601
	c-1.671-0.17-3.843-1.925-3.77-3.81c0.181-4.453-2.712-8.373-1.885-12.847c1.888-0.989,3.773-1.977,5.661-2.965
	c7.753-0.037,2.194-5.354,3.198-8.069c0.105-0.382,0.21-0.765,0.316-1.147c1.401,0.094,2.188,1.854,3.791,1.399l-0.043-0.045
	c3.398,7.772,10.54,10.701,17.72,13.424c2.214,0.838,3.966-0.102,4.974-2.745c2.227-5.835,5.812-7.524,11.845-5.417
	c3.094,1.081,5.917,1.654,8.958,0.293c1.314,0.394,1.592,1.539,1.916,2.649c-0.008,2.056,2.604,2.861,2.918,2.544
	c4.275-4.3,9.043-1.077,13.554-1.151C817.854,271.207,823.199,273.272,827.033,276.52z"/>
<path id="Llovce_1_" fill="#353535" stroke="#FFFFFF" stroke-width="1.5" stroke-miterlimit="10" d="M834.039,409.602
	c-2.643,5.771-8.458,4.83-13.021,5.413c-5.353,0.685-10.313-0.447-12.752,6.751c-1.34,3.947-6.556,5.108-11.273,4.293
	c-2.485-0.429-5.037-0.466-7.56-0.683c-0.031-0.718-0.063-1.436-0.096-2.153c-0.159-4.851-3.845-9.404-1.207-14.485
	c1.263-3.994,7.613-5.406,5.614-11.059c-0.049-0.547-0.057-1.565-0.15-1.575c-6.314-0.527-3.658-5.863-4.896-9.082
	c2.34-2.73,0.759-4.903-1.224-6.718c-0.93-0.853-2.291-1.833-1.044-2.577c3.12-1.866,4.636-5.32,8.318-6.827
	c6.126-2.508,11.668-1.163,17.399,0.633c2.889,1.301,5.898,1.624,9.064,1.947c6.013,0.615,10.133,4.95,14.243,8.984
	c-0.343,3.164-0.077,6.553-1.155,9.44C832.072,397.888,830.88,403.646,834.039,409.602z"/>
<path fill="#353535" stroke="#FFFFFF" stroke-width="1.5" stroke-miterlimit="10" d="M341.701,308.238
	c2.265-7.773,7.413-10.577,15.273-8.316c2.394,1.037,1.963,3.437,2.578,5.331c1.376,4.752-0.313,9.097-1.81,13.458
	c-1.304,3.8-4.533,4.79-7.833,4.166c-3.129-0.593-7.047-1.175-5.78-6.466C344.823,313.512,343.24,310.756,341.701,308.238z"/>
<path id="Burunic_1_" fill="#353535" stroke="#FFFFFF" stroke-width="1.5" stroke-miterlimit="10" d="M773.941,438.104
	c1.271-1.218,0.182-2.238-0.497-2.948c-8.435-8.849-9.523-14.854-2.716-23.782c2.646-3.471,3.905-6.38,3.053-10.487
	c-0.261-1.247-0.535-2.992,0.841-3.741c1.518-0.823,2.413,0.872,3.407,1.64c2.613,2.015,5.093,4.204,7.625,6.321
	c1.099,0.993,1.369,2.325,1.498,3.715c-5.035,5.676-1.258,10.016,2.187,14.404c0.031,0.718,0.063,1.436,0.095,2.152
	c0,0-0.007,0.396-0.008,0.398c-3.589,1.641-5.324,4.044-4.4,8.298c0.422,1.931-0.445,4.141-0.729,6.222
	c-1.975,1.357-3.674,4.021-6.489,1.362c-0.69-1.063-0.263-3.398-2.749-2.416l0.063,0.063c0.532-1.346,0.098-1.73-1.226-1.24
	L773.941,438.104z"/>
</svg>
